<?xml version="1.0" standalone="no"?>
<!DOCTYPE svg PUBLIC "-//W3C//DTD SVG 20010904//EN"
 "http://www.w3.org/TR/2001/REC-SVG-20010904/DTD/svg10.dtd">
<svg version="1.0" xmlns="http://www.w3.org/2000/svg"
 width="117.000000pt" height="71.000000pt" viewBox="0 0 117.000000 71.000000"
 preserveAspectRatio="xMidYMid meet">

<g transform="translate(0.000000,71.000000) scale(0.100000,-0.100000)"
fill="#27a09c" stroke="none">
<path d="M290 676 c0 -23 -4 -25 -52 -28 -49 -3 -53 -5 -56 -30 -3 -24 -8 -28
-33 -28 -27 0 -29 -3 -29 -35 l0 -35 -60 0 -60 0 0 -195 0 -195 60 0 c60 0 60
0 60 -30 0 -28 1 -29 58 -32 54 -3 57 -4 60 -31 l3 -27 375 0 374 0 0 55 0 55
-145 0 -145 0 0 35 0 35 200 0 200 0 0 55 0 55 -200 0 -200 0 0 30 0 30 230 0
230 0 0 55 0 55 -230 0 -230 0 0 30 0 30 200 0 200 0 0 60 0 60 -227 -2 -228
-3 -3 -172 -2 -173 -85 0 -85 0 0 30 c0 30 1 30 55 30 l55 0 0 170 0 170 -145
0 -145 0 0 -24z m180 -201 l0 -115 -30 0 -30 0 0 115 0 115 30 0 30 0 0 -115z"/>
</g>
</svg>
