<?xml version="1.0" standalone="no"?>
<!DOCTYPE svg PUBLIC "-//W3C//DTD SVG 20010904//EN"
 "http://www.w3.org/TR/2001/REC-SVG-20010904/DTD/svg10.dtd">
<svg version="1.0" xmlns="http://www.w3.org/2000/svg"
 width="123.000000pt" height="76.000000pt" viewBox="0 0 123.000000 76.000000"
 preserveAspectRatio="xMidYMid meet">

<g transform="translate(0.000000,76.000000) scale(0.100000,-0.100000)"
fill="#27a09c" stroke="none">
<path d="M990 730 c0 -30 -1 -30 -55 -30 -54 0 -55 0 -55 -30 l0 -30 -115 0
-115 0 0 -140 0 -139 143 -3 142 -3 3 -27 3 -28 85 0 84 0 0 -30 c0 -30 1 -30
55 -30 l55 0 0 55 0 55 -55 0 c-54 0 -55 0 -55 30 l0 30 -90 0 -90 0 0 30 0
30 -85 0 -85 0 0 30 0 30 60 0 60 0 0 30 0 30 84 0 85 0 3 28 c3 27 4 27 86
30 l82 3 0 54 0 55 -115 0 -115 0 0 -30z"/>
<path d="M300 670 l0 -30 -60 0 -60 0 0 -30 c0 -27 -3 -30 -30 -30 -25 0 -30
-4 -30 -25 0 -24 -3 -25 -55 -25 l-55 0 0 -205 0 -205 54 0 c52 0 55 -1 58
-27 3 -27 6 -28 61 -31 53 -3 57 -5 57 -27 l0 -25 115 0 115 0 0 170 0 170
-30 0 -30 0 0 120 0 120 30 0 30 0 0 -115 0 -115 55 0 55 0 0 170 0 170 -140
0 -140 0 0 -30z"/>
<path d="M530 235 l0 -55 175 0 175 0 0 55 0 55 -175 0 -175 0 0 -55z"/>
<path d="M530 65 l0 -55 145 0 145 0 0 55 0 55 -145 0 -145 0 0 -55z"/>
</g>
</svg>
