<?xml version="1.0" standalone="no"?>
<!DOCTYPE svg PUBLIC "-//W3C//DTD SVG 20010904//EN"
 "http://www.w3.org/TR/2001/REC-SVG-20010904/DTD/svg10.dtd">
<svg version="1.0" xmlns="http://www.w3.org/2000/svg"
 width="88.000000pt" height="71.000000pt" viewBox="0 0 88.000000 71.000000"
 preserveAspectRatio="xMidYMid meet">

<g transform="translate(0.000000,71.000000) scale(0.100000,-0.100000)"
fill="#27a09c" stroke="none">
<path d="M300 675 c0 -22 -4 -24 -57 -27 -55 -3 -58 -4 -61 -30 -3 -22 -9 -28
-28 -28 -20 0 -24 -5 -24 -30 l0 -30 -60 0 -60 0 0 -200 0 -199 58 -3 c54 -3
57 -4 60 -31 3 -26 6 -27 58 -27 53 0 54 0 54 -30 l0 -30 115 0 115 0 0 169 0
170 -27 3 -28 3 -3 118 -3 117 31 0 30 0 0 -115 0 -115 60 0 60 0 0 170 0 170
-145 0 -145 0 0 -25z"/>
<path d="M650 590 l0 -60 115 0 115 0 0 60 0 60 -115 0 -115 0 0 -60z"/>
<path d="M650 415 l0 -55 115 0 115 0 0 55 0 55 -115 0 -115 0 0 -55z"/>
<path d="M530 240 l0 -60 175 0 175 0 0 60 0 60 -175 0 -175 0 0 -60z"/>
<path d="M530 65 l0 -55 145 0 145 0 0 55 0 55 -145 0 -145 0 0 -55z"/>
</g>
</svg>
